<?xml version="1.0" standalone="no"?>
<!DOCTYPE svg PUBLIC "-//W3C//DTD SVG 20010904//EN"
 "http://www.w3.org/TR/2001/REC-SVG-20010904/DTD/svg10.dtd">
<svg version="1.0" xmlns="http://www.w3.org/2000/svg"
 width="700.000000pt" height="700.000000pt" viewBox="0 0 700.000000 700.000000"
 preserveAspectRatio="xMidYMid meet">
<metadata>
Created by potrace 1.14, written by Peter Selinger 2001-2017
</metadata>
<g transform="translate(0.000000,700.000000) scale(0.100000,-0.100000)"
fill="#000000" stroke="none">
<path d="M2173 5547 c-9 -14 -10 -1196 -1 -1210 5 -9 119 -12 408 -12 393 0
401 0 405 20 2 11 4 99 4 195 -1 96 0 180 0 185 1 8 206 11 649 10 603 -1 651
-2 702 -20 300 -101 384 -472 156 -689 -43 -41 -143 -94 -198 -104 -18 -3
-689 -6 -1491 -6 -963 -1 -1457 -4 -1458 -11 -3 -32 -4 -774 -1 -792 l4 -22
347 0 c190 0 373 0 407 0 l61 -1 -1 -807 c-1 -445 0 -814 2 -820 3 -10 94 -13
412 -13 l407 0 1 813 c0 446 1 817 1 822 1 7 256 9 749 8 739 -1 749 -2 812
-23 114 -38 189 -107 243 -220 40 -83 47 -207 18 -293 -53 -152 -175 -258
-326 -281 -16 -2 -268 -5 -560 -5 l-530 -1 1 -407 0 -408 570 -2 c323 -1 595
2 629 8 215 34 440 130 589 251 254 206 418 498 460 818 8 58 8 244 1 295 -24
160 -54 264 -115 390 -63 131 -124 218 -237 334 -35 36 -63 68 -63 73 0 4 16
32 35 62 68 106 136 279 160 406 21 112 27 287 13 376 -5 31 -10 69 -12 83
-29 215 -165 471 -343 648 -179 178 -385 288 -635 339 -75 15 -193 17 -1176
19 -727 1 -1095 -2 -1099 -8z"/>
</g>
</svg>
